<svg xmlns="http://www.w3.org/2000/svg" width="20" height="20"><g fill="none" fill-rule="evenodd"><circle cx="10" cy="10" r="9" fill="#FFF"/><path fill="#00A546" fill-rule="nonzero" d="M10 0C4.477 0 0 4.477 0 10c0 5.522 4.477 10 10 10 5.522 0 10-4.478 10-10 0-5.523-4.478-10-10-10zm2.081 15.498c-.514.203-.924.357-1.231.464-.307.107-.663.16-1.069.16-.623 0-1.108-.152-1.453-.456a1.473 1.473 0 01-.518-1.158c0-.182.013-.368.038-.558.027-.19.068-.402.125-.642l.644-2.276c.057-.218.106-.425.145-.618.039-.195.057-.374.057-.536 0-.29-.06-.493-.179-.607-.121-.115-.349-.17-.688-.17a1.79 1.79 0 00-.512.076 6.507 6.507 0 00-.448.149l.17-.701c.421-.172.825-.32 1.21-.441.386-.124.75-.185 1.093-.185.618 0 1.096.15 1.432.449.334.299.503.687.503 1.165 0 .099-.012.273-.035.522-.023.25-.066.477-.129.687l-.64 2.268c-.053.182-.1.39-.142.623a3.365 3.365 0 00-.062.53c0 .302.067.507.203.617.133.109.368.164.7.164.156 0 .332-.028.53-.082.196-.054.338-.103.428-.144l-.172.7zm-.113-9.209a1.53 1.53 0 01-1.08.417c-.42 0-.782-.14-1.083-.417a1.328 1.328 0 01-.451-1.01c0-.393.152-.732.45-1.012a1.538 1.538 0 011.084-.421c.421 0 .782.14 1.08.42.299.28.449.62.449 1.013 0 .395-.15.732-.45 1.01z"/></g></svg>