<svg xmlns="http://www.w3.org/2000/svg" xmlns:xlink="http://www.w3.org/1999/xlink" width="120" height="100"><defs><linearGradient id="c" x1="103.61%" x2="30.926%" y1="36.444%" y2="92.189%"><stop offset="0%" stop-color="#2E8E69"/><stop offset="100%" stop-color="#236E51"/></linearGradient><path id="a" d="M0 0h119.593v99.462H0z"/></defs><g fill="none" fill-rule="evenodd"><mask id="b" fill="#fff"><use xlink:href="#a"/></mask><path d="M4.772-50.347l-7.996.01 198.6 200.255 67.798-.004.003-107.489-156.832-158.139z" mask="url(#b)"/><path d="M1.175 83.315l65.858 66.6 196.141-.001.003-3.811L118.773 1.425z" mask="url(#b)"/><path fill="#D9FBEE" d="M82.52 98.601H37.845c-.112 0-.232-.14-.018-.224 1.26-.494 6.621-2.031 7.285-2.628.707-.636.927-1.691 1.15-3.112.32-2.02 1.23-8.25 1.23-8.25h25.361s.903 6.153 1.244 8.186c.199 1.181.648 2.533 1.285 3.212.55.586 5.899 2.108 7.158 2.592.174.067.121.224-.018.224" mask="url(#b)"/><path fill="#A9D8C6" d="M46.831 88.746l26.68-.056c-.13-.9-.19-1.34-.318-2.223h-26.04c-.126.851-.187 1.336-.322 2.28" mask="url(#b)"/><path fill="#92C9B4" d="M82.423 99.548h-44.54c-.173 0-.169-.107-.169-.107v-.933h44.93v.874s0 .166-.221.166m-9.225-13.047c-.184-1.387-.346-2.114-.346-2.114h-25.36s-.138.71-.344 2.114h26.05z" mask="url(#b)"/><path fill="#0D3F2C" d="M119.701 72.729H.044V3.387c0-1.795 1.443-3.25 3.223-3.25h113.21c1.78 0 3.224 1.455 3.224 3.25v69.342z" mask="url(#b)"/><path fill="#236E51" d="M4.17 68.568h111.405V4.297H4.17z" mask="url(#b)"/><path fill="url(#c)" d="M91.803 4.297L31.075 68.568h84.5V4.297z" mask="url(#b)"/><path fill="#292726" d="M58.003 2.39c0 .347-.28.629-.624.629s-.624-.282-.624-.629c0-.347.28-.63.624-.63.345 0 .624.283.624.63" mask="url(#b)"/><path fill="#050101" d="M57.607 2.39c0 .127-.102.23-.228.23-.125 0-.227-.103-.227-.23s.102-.23.227-.23c.126 0 .228.103.228.23" mask="url(#b)"/><path fill="#D9FBEE" d="M.043 72.729v8.407c0 1.788 1.451 3.25 3.224 3.25h113.21c1.773 0 3.224-1.462 3.224-3.25V72.73H.043z" mask="url(#b)"/><path fill="#92C9B4" d="M62.27 80.406h-4.795a1.843 1.843 0 01-1.833-1.848c0-1.02.822-1.85 1.833-1.85h4.795c1.01 0 1.833.83 1.833 1.85a1.842 1.842 0 01-1.833 1.848" mask="url(#b)"/></g></svg>