<svg xmlns="http://www.w3.org/2000/svg" xmlns:xlink="http://www.w3.org/1999/xlink" width="40" height="80"><defs><linearGradient id="c" x1="72.726%" x2="45.904%" y1="0%" y2="65.396%"><stop offset="0%" stop-color="#2E8E69"/><stop offset="100%" stop-color="#236E51"/></linearGradient><path id="a" d="M0 0h39.797v79.593H0z"/></defs><g fill="none" fill-rule="evenodd"><mask id="b" fill="#fff"><use xlink:href="#a"/></mask><path d="M1.958 77.933l109.565 109.418 12.586-.005.004-99.466L37.847 1.337zM-10.496-81.445l134.609 134.77-.004-147.404-75.603-75.603z" mask="url(#b)"/><path fill="#81BFA7" d="M1.606 11.183c0 .513-.353.933-.785.933-.432 0-.785-.42-.785-.933V9.656c0-.514.353-.934.785-.934.432 0 .785.42.785.934v1.527zm0 10.579a.206.206 0 01-.206.205H.255a.207.207 0 01-.205-.205v-5.6c0-.113.093-.205.205-.205H1.4c.114 0 .206.092.206.205v5.6zm38.376-.103c0 .17-.139.307-.308.307h-1.026a.308.308 0 01-.308-.307v-5.393c0-.169.138-.308.308-.308h1.026c.17 0 .308.14.308.308v5.393zM1.621 28.45c0 .514-.35.934-.777.934-.428 0-.778-.42-.778-.933v-4.144c0-.513.35-.933.778-.933.427 0 .777.42.777.933v4.144z" mask="url(#b)"/><path fill="#D9FBEE" d="M39.607 74.172a5.321 5.321 0 01-5.322 5.322H5.733A5.322 5.322 0 01.41 74.172V5.304A5.322 5.322 0 015.733-.018h28.552a5.322 5.322 0 015.322 5.322v68.868z" mask="url(#b)"/><path fill="#81BFA7" d="M14.261 3.403a.425.425 0 11.85 0 .425.425 0 01-.85 0m10.646 0a.425.425 0 11.85 0 .425.425 0 01-.85 0m-1.7.004c0 .154-.126.23-.281.23h-5.834c-.156 0-.282-.069-.282-.23s.126-.237.282-.237h5.834c.155 0 .281.084.281.237" mask="url(#b)"/><path fill="#236E51" d="M36.847 72.49H3.173a1.75 1.75 0 01-1.75-1.75V7.765a1.75 1.75 0 011.75-1.749h33.674c.966 0 1.75.783 1.75 1.75V70.74a1.75 1.75 0 01-1.75 1.75" mask="url(#b)"/><path fill="url(#c)" d="M34.288 6.016L1.421 40.764l.006 29.977c0 .966.782 1.749 1.749 1.749h33.668a1.75 1.75 0 001.75-1.75V7.765a1.75 1.75 0 00-1.75-1.749h-2.556z" mask="url(#b)"/><path fill="#92C9B4" d="M22.665 77.237h-5.312a1.464 1.464 0 010-2.927h5.312c.806 0 1.463.656 1.463 1.463 0 .808-.657 1.464-1.463 1.464m0-3.494h-5.312a2.031 2.031 0 000 4.061h5.312c1.12 0 2.03-.911 2.03-2.03 0-1.12-.91-2.031-2.03-2.031" mask="url(#b)"/></g></svg>